<mxfile host="Electron" modified="2023-06-02T23:25:41.013Z" agent="Mozilla/5.0 (X11; Linux x86_64) AppleWebKit/537.36 (KHTML, like Gecko) draw.io/21.2.8 Chrome/112.0.5615.165 Electron/24.2.0 Safari/537.36" etag="L8vBVQGde59a1hAoYmZY" version="21.2.8" type="device">
  <diagram name="Page-1" id="HNmFx-NB3xg4kWhVHFb8">
    <mxGraphModel dx="783" dy="870" grid="1" gridSize="10" guides="1" tooltips="1" connect="1" arrows="1" fold="1" page="1" pageScale="1" pageWidth="850" pageHeight="1100" math="0" shadow="0">
      <root>
        <mxCell id="0" />
        <mxCell id="1" parent="0" />
        <mxCell id="mCqiu4VrbJPYMKOyVtJH-1" value="&lt;b&gt;&lt;i&gt;&lt;font style=&quot;font-size: 25px;&quot;&gt;R =&lt;/font&gt;&lt;/i&gt;&lt;/b&gt;" style="rounded=0;whiteSpace=wrap;html=1;" parent="1" vertex="1">
          <mxGeometry x="30" y="240" width="120" height="60" as="geometry" />
        </mxCell>
        <mxCell id="mCqiu4VrbJPYMKOyVtJH-2" value="Baseline" style="swimlane;whiteSpace=wrap;html=1;" parent="1" vertex="1">
          <mxGeometry x="180" y="160" width="220" height="200" as="geometry">
            <mxRectangle x="180" y="160" width="90" height="30" as="alternateBounds" />
          </mxGeometry>
        </mxCell>
        <mxCell id="mCqiu4VrbJPYMKOyVtJH-3" value="&lt;span style=&quot;font-size: 25px;&quot;&gt;&lt;b&gt;&lt;i&gt;+&lt;/i&gt;&lt;/b&gt;&lt;/span&gt;" style="rounded=0;whiteSpace=wrap;html=1;" parent="1" vertex="1">
          <mxGeometry x="420" y="240" width="120" height="60" as="geometry" />
        </mxCell>
        <mxCell id="mCqiu4VrbJPYMKOyVtJH-4" value="Performance Bug Scenarios" style="swimlane;whiteSpace=wrap;html=1;" parent="1" vertex="1">
          <mxGeometry x="570" y="160" width="390" height="200" as="geometry" />
        </mxCell>
        <mxCell id="mCqiu4VrbJPYMKOyVtJH-11" value="&lt;ul&gt;&lt;li style=&quot;text-align: left;&quot;&gt;Synchronization:&lt;/li&gt;&lt;ol&gt;&lt;li style=&quot;text-align: left;&quot;&gt;Race condition: Not using Lock() while we have more than one thread&lt;/li&gt;&lt;li style=&quot;text-align: left;&quot;&gt;Dead Lock: Not using join() (instead of checking order of&amp;nbsp;&lt;strong style=&quot;box-sizing: border-box; font-family: &amp;quot;Helvetica Neue&amp;quot;, Helvetica, Arial, sans-serif; font-size: 14px; background-color: rgb(255, 255, 255);&quot;&gt;acquire and release)&lt;/strong&gt;&lt;/li&gt;&lt;li style=&quot;text-align: left;&quot;&gt;&lt;strong style=&quot;box-sizing: border-box; font-family: &amp;quot;Helvetica Neue&amp;quot;, Helvetica, Arial, sans-serif; font-size: 14px; background-color: rgb(255, 255, 255);&quot;&gt;Having more than one thread and not defining Lock()&lt;/strong&gt;&lt;/li&gt;&lt;/ol&gt;&lt;li style=&quot;text-align: left;&quot;&gt;Loops:&lt;/li&gt;&lt;ol&gt;&lt;li style=&quot;text-align: left;&quot;&gt;Nested Level&lt;/li&gt;&lt;li style=&quot;text-align: left;&quot;&gt;Input_dependant&lt;/li&gt;&lt;/ol&gt;&lt;li style=&quot;text-align: left;&quot;&gt;&lt;br&gt;&lt;/li&gt;&lt;/ul&gt;" style="text;html=1;align=center;verticalAlign=middle;resizable=0;points=[];autosize=1;strokeColor=none;fillColor=none;" parent="mCqiu4VrbJPYMKOyVtJH-4" vertex="1">
          <mxGeometry x="-150" y="30" width="540" height="160" as="geometry" />
        </mxCell>
        <mxCell id="mCqiu4VrbJPYMKOyVtJH-10" value="&lt;ul&gt;&lt;li style=&quot;text-align: left;&quot;&gt;API Misuses:&lt;/li&gt;&lt;ol&gt;&lt;li style=&quot;border-color: var(--border-color); text-align: left;&quot;&gt;Overuing&amp;nbsp;&lt;b style=&quot;border-color: var(--border-color);&quot;&gt;extra()&lt;/b&gt;&lt;/li&gt;&lt;li style=&quot;border-color: var(--border-color); text-align: left;&quot;&gt;Overusing&lt;b style=&quot;border-color: var(--border-color);&quot;&gt;&amp;nbsp;order_by()&lt;/b&gt;&lt;/li&gt;&lt;li style=&quot;border-color: var(--border-color); text-align: left;&quot;&gt;Overusing&amp;nbsp;&lt;b style=&quot;border-color: var(--border-color);&quot;&gt;select_related()&lt;/b&gt;&lt;/li&gt;&lt;/ol&gt;&lt;li style=&quot;text-align: left;&quot;&gt;Synchronization:&lt;/li&gt;&lt;ol&gt;&lt;li style=&quot;text-align: left;&quot;&gt;Sign of using &lt;b&gt;multi-threading (Thread, start, join)&lt;/b&gt;&lt;/li&gt;&lt;/ol&gt;&lt;li style=&quot;text-align: left;&quot;&gt;Loops:&lt;/li&gt;&lt;ol&gt;&lt;li style=&quot;text-align: left;&quot;&gt;Utilizing any kind of &lt;b&gt;loops&lt;/b&gt;&lt;/li&gt;&lt;/ol&gt;&lt;li style=&quot;text-align: left;&quot;&gt;&lt;br&gt;&lt;/li&gt;&lt;/ul&gt;" style="text;html=1;align=center;verticalAlign=middle;resizable=0;points=[];autosize=1;strokeColor=none;fillColor=none;" parent="1" vertex="1">
          <mxGeometry x="105" y="175" width="380" height="170" as="geometry" />
        </mxCell>
        <mxCell id="HIrzM-PpdGaSL8YoJliv-2" value="Future:&lt;br&gt;&lt;ul&gt;&lt;li&gt;Adding functions name&lt;/li&gt;&lt;li&gt;Adding functions file name&lt;/li&gt;&lt;li&gt;TF-IDF&lt;/li&gt;&lt;li&gt;read/write&lt;/li&gt;&lt;/ul&gt;" style="text;html=1;strokeColor=none;fillColor=none;align=center;verticalAlign=middle;whiteSpace=wrap;rounded=0;" vertex="1" parent="1">
          <mxGeometry x="500" y="410" width="360" height="120" as="geometry" />
        </mxCell>
      </root>
    </mxGraphModel>
  </diagram>
</mxfile>
